<?xml version="1.0" standalone="no"?>
<!DOCTYPE svg PUBLIC "-//W3C//DTD SVG 20010904//EN"
 "http://www.w3.org/TR/2001/REC-SVG-20010904/DTD/svg10.dtd">
<svg version="1.0" xmlns="http://www.w3.org/2000/svg"
 width="100.000000pt" height="80.000000pt" viewBox="0 0 500.000000 500.000000"
 preserveAspectRatio="xMidYMid meet">

<g transform="translate(0.000000,500.000000) scale(0.100000,-0.100000)"
fill="#000000" stroke="none">
<path d="M0 2500 l0 -2500 2500 0 2500 0 0 2500 0 2500 -2500 0 -2500 0 0
-2500z m1470 405 c70 -25 73 -30 45 -86 -14 -27 -28 -49 -31 -49 -3 0 -19 7
-35 16 -40 20 -118 15 -133 -8 -17 -28 3 -49 85 -90 41 -21 91 -56 112 -77
l37 -40 0 64 0 65 60 0 c53 0 60 -2 60 -20 0 -19 2 -19 38 5 37 24 43 25 140
19 l102 -7 0 -174 0 -173 -65 0 -65 0 0 123 0 122 -52 3 c-29 1 -58 -1 -64 -5
-25 -18 -34 -57 -34 -147 l0 -96 -60 0 -60 0 0 51 0 52 -22 -33 c-63 -92 -240
-107 -366 -30 l-34 21 28 47 c38 67 38 67 82 37 80 -53 177 -39 170 23 -2 22
-16 34 -80 67 -42 22 -86 49 -98 60 -77 70 -64 188 29 246 37 24 56 29 107 29
34 0 81 -7 104 -15z m465 -10 c14 -13 25 -36 25 -50 0 -30 -41 -75 -68 -75
-35 0 -72 38 -72 75 0 24 7 39 26 54 35 27 59 26 89 -4z m559 9 c26 -9 50 -22
52 -29 4 -10 -26 -86 -41 -103 -1 -1 -27 4 -57 12 -131 34 -238 -36 -238 -155
0 -51 26 -98 72 -132 38 -28 131 -34 183 -13 22 10 41 13 44 7 3 -5 7 12 7 39
4 101 65 170 159 178 37 3 63 -1 86 -12 21 -11 35 -13 37 -6 2 5 32 10 68 10
l64 0 0 -175 0 -175 -65 0 c-50 0 -65 3 -65 15 0 11 -7 10 -35 -7 -46 -27
-127 -22 -173 11 l-31 22 -43 -23 c-36 -18 -59 -22 -138 -23 -81 0 -102 4
-140 24 -193 101 -232 322 -82 468 23 23 66 51 95 62 65 25 175 27 241 5z
m737 -204 c18 -10 18 -12 3 -43 l-17 -32 38 33 c47 42 74 52 134 52 55 0 126
-33 154 -72 11 -14 22 -49 25 -77 l5 -51 -127 0 c-105 0 -126 -2 -126 -15 0
-48 90 -73 139 -39 21 15 26 15 62 -1 47 -22 49 -35 9 -68 -42 -36 -93 -50
-161 -45 -46 3 -67 11 -96 34 -55 44 -86 107 -79 166 5 51 -1 58 -57 58 -57 0
-67 -20 -67 -142 l0 -108 -65 0 -65 0 0 175 0 175 65 0 c59 0 65 -2 65 -21 0
-20 1 -20 31 5 33 28 93 35 130 16z m582 -220 c61 -48 30 -139 -47 -140 -80
-1 -106 121 -33 150 34 14 52 12 80 -10z m-1923 -220 c12 -8 9 -10 -12 -10
-35 0 -36 -13 -2 -29 16 -7 24 -18 22 -29 -4 -20 -45 -29 -62 -12 -8 9 -4 10
17 5 21 -6 27 -4 27 9 0 9 -6 16 -14 16 -7 0 -19 7 -26 15 -10 12 -10 18 0 30
14 17 29 19 50 5z m275 0 c3 -5 1 -10 -4 -10 -6 0 -11 5 -11 10 0 6 2 10 4 10
3 0 8 -4 11 -10z m305 0 c0 -5 -7 -10 -15 -10 -11 0 -15 -11 -15 -40 0 -22 -4
-40 -10 -40 -5 0 -10 18 -10 40 0 22 -4 40 -10 40 -5 0 -10 5 -10 10 0 6 16
10 35 10 19 0 35 -4 35 -10z m290 -40 c0 -27 -4 -50 -10 -50 -5 0 -10 23 -10
50 0 28 5 50 10 50 6 0 10 -22 10 -50z m278 -43 c19 -4 17 -4 -8 -3 -32 1 -35
4 -38 34 -2 19 0 41 5 50 5 12 8 2 11 -30 3 -42 6 -47 30 -51z m332 43 c0 -49
-1 -50 -30 -50 -35 0 -59 32 -39 56 6 8 20 14 30 14 11 0 19 7 19 15 0 8 5 15
10 15 6 0 10 -22 10 -50z m-182 9 c-6 -4 -8 -19 -6 -33 7 -37 -10 -32 -20 7
-11 38 2 63 23 44 8 -8 9 -14 3 -18z m-1150 0 c-10 -5 -18 -21 -18 -34 0 -14
-4 -25 -10 -25 -5 0 -10 16 -10 35 0 32 3 35 28 35 23 -1 24 -2 10 -11z m132
-24 c0 -19 -4 -35 -10 -35 -5 0 -10 16 -10 35 0 19 5 35 10 35 6 0 10 -16 10
-35z m468 13 c3 -14 -3 -18 -23 -18 -16 0 -24 -4 -20 -11 4 -6 13 -8 21 -5 8
3 14 1 14 -5 0 -6 -12 -9 -27 -7 -28 3 -40 25 -29 54 8 21 60 14 64 -8z"/>
<path d="M2703 2602 c-50 -7 -73 -101 -34 -136 27 -25 88 -23 113 2 25 24 27
86 3 112 -18 19 -47 27 -82 22z"/>
<path d="M3348 2619 c-10 -5 -18 -17 -18 -24 0 -12 14 -15 60 -15 63 0 71 7
42 33 -21 19 -58 22 -84 6z"/>
<path d="M3313 2214 c-8 -21 13 -42 28 -27 13 13 5 43 -11 43 -6 0 -13 -7 -17
-16z"/>
<path d="M2598 2223 c7 -3 16 -2 19 1 4 3 -2 6 -13 5 -11 0 -14 -3 -6 -6z"/>
</g>
</svg>
